# xmcd
#
# Track frame offsets: 
#        150
#        22764
#        40328
#        55896
#        68228
#        82091
#        97640
#        114466
#        128113
#        150060
#        170732
#        196905
#
# Disc length: 2872 seconds
#
# Revision: 0
# Processed by: cddbd v1.4PL0 Copyright (c) Steve Scherf et al.
# Submitted via: ExactAudioCopy v0.95a3
#
DISCID=8c0b360c
DTITLE=Monti Amonudson  - Big Monty Blues
DYEAR=2001
DGENRE=
TTITLE0=Prove Me Wrong
TTITLE1=Calculatin' Woman Blues
TTITLE2=Standing Next To You
TTITLE3=99 Below
TTITLE4=Broke Down Car
TTITLE5=Corndread Baby
TTITLE6=What's So Special 'bout Love
TTITLE7=Killing Time
TTITLE8=No Cream In My Heart
TTITLE9=Man On The Floor
TTITLE10=Landlady Came By
TTITLE11=Bluesman Moves To Paris
EXTD=
EXTT0=
EXTT1=
EXTT2=
EXTT3=
EXTT4=
EXTT5=
EXTT6=
EXTT7=
EXTT8=
EXTT9=
EXTT10=
EXTT11=
PLAYORDER=
